<svg xmlns="http://www.w3.org/2000/svg" fill="none" viewBox="0 0 500 500">
	<path
		fill="#493030"
		d="M127.7 345.231V281.94h248v63.291c-104.921 45.631-145.147 41.441-248 0Z"
	/>
	<path
		fill="#CD6799"
		d="M277.365 351.207c-2.093.01-3.913.503-5.436 1.231-.559-1.082-1.118-2.046-1.216-2.753-.11-.824-.241-1.328-.11-2.314.132-.985.723-2.389.712-2.496-.01-.107-.131-.61-1.337-.621-1.205-.011-2.246.225-2.367.536-.12.31-.35 1.017-.504 1.746-.208 1.071-2.411 4.895-3.671 6.898-.406-.781-.756-1.467-.833-2.013-.11-.825-.241-1.329-.11-2.314.132-.986.724-2.389.713-2.496-.011-.107-.132-.611-1.337-.621-1.206-.011-2.247.225-2.368.535-.12.311-.252 1.039-.504 1.746-.252.707-3.178 7.092-3.945 8.741-.31.668-.635 1.329-.975 1.982 0 0-.011.032-.044.086-.107.205-.217.408-.329.611v.01c-.164.29-.34.557-.427.557-.066 0-.187-.771.021-1.821.439-2.217 1.48-5.666 1.469-5.784 0-.065.197-.664-.679-.975-.855-.311-1.162.203-1.239.203-.077 0-.132.182-.132.182s.954-3.877-1.819-3.877c-1.731 0-4.12 1.853-5.304 3.524-1.345.716-2.69 1.433-4.033 2.153-.646.354-1.315.707-1.94 1.039-.043-.043-.087-.096-.131-.139-3.354-3.503-9.556-5.978-9.293-10.68.098-1.714.701-6.213 11.912-11.677 9.228-4.445 16.571-3.213 17.842-.482 1.819 3.9-3.935 11.141-13.469 12.191-3.639.396-5.546-.975-6.028-1.489-.504-.536-.581-.568-.767-.461-.307.161-.109.643 0 .922.285.728 1.458 2.013 3.441 2.646 1.754.556 6.017.867 11.179-1.082 5.775-2.186 10.29-8.26 8.964-13.348-1.326-5.163-10.093-6.866-18.389-3.985-4.932 1.714-10.28 4.414-14.127 7.927-4.57 4.178-5.293 7.809-4.997 9.331 1.063 5.398 8.68 8.912 11.726 11.515-.153.086-.296.161-.416.225-1.524.739-7.332 3.707-8.778 6.845-1.644 3.557.263 6.107 1.523 6.449 3.912 1.061 7.934-.846 10.093-3.996 2.159-3.149 1.896-7.241.899-9.116-.011-.021-.022-.043-.044-.064.395-.225.8-.461 1.195-.686.725-.419 1.459-.822 2.203-1.21-.373.996-.647 2.185-.779 3.899-.164 2.014.68 4.628 1.787 5.656.493.45 1.074.461 1.446.461 1.294 0 1.874-1.05 2.521-2.292.789-1.522 1.501-3.289 1.501-3.289s-.887 4.778 1.524 4.778c.876 0 1.764-1.115 2.159-1.682v.01s.022-.032.066-.107c.087-.139.142-.225.142-.225v-.021c.351-.6 1.14-1.96 2.312-4.221 1.513-2.913 2.97-6.556 2.97-6.556s.132.89.581 2.368c.263.867.811 1.821 1.249 2.742-.35.482-.569.75-.569.75l.011.011c-.285.364-.592.76-.932 1.146-1.195 1.392-2.619 2.989-2.817 3.449-.23.546-.175.943.264 1.264.317.236.887.268 1.468.236 1.074-.075 1.83-.332 2.203-.493.581-.203 1.26-.514 1.896-.975 1.172-.846 1.885-2.056 1.819-3.652-.033-.879-.329-1.757-.69-2.582.109-.15.208-.3.317-.45 1.852-2.646 3.288-5.549 3.288-5.549s.132.889.581 2.367c.219.75.669 1.564 1.063 2.357-1.742 1.382-2.817 2.989-3.2 4.039-.69 1.949-.154 2.828.866 3.031.46.097 1.118-.118 1.6-.321.613-.193 1.337-.525 2.027-1.018 1.173-.846 2.302-2.025 2.236-3.62-.033-.729-.23-1.447-.504-2.143 1.479-.6 3.386-.932 5.819-.654 5.217.6 6.247 3.782 6.049 5.121-.197 1.339-1.293 2.067-1.654 2.292-.362.225-.482.3-.449.461.043.236.219.225.526.182.427-.075 2.739-1.082 2.838-3.546.164-3.149-2.904-6.588-8.329-6.555Zm-40.242 13.261c-1.732 1.843-4.143 2.539-5.184 1.95-1.118-.632-.679-3.353 1.447-5.303 1.293-1.189 2.959-2.292 4.065-2.967.252-.15.625-.364 1.075-.632.076-.043.12-.064.12-.064l.263-.161c.778 2.785.033 5.238-1.786 7.177Zm12.603-8.377c-.603 1.436-1.863 5.11-2.63 4.907-.658-.172-1.064-2.957-.132-5.71.471-1.382 1.469-3.032 2.049-3.674.943-1.029 1.984-1.372 2.236-.954.318.547-1.151 4.531-1.523 5.431Zm10.4 4.864c-.252.128-.493.214-.603.15-.076-.043.11-.215.11-.215s1.304-1.371 1.819-1.992c.296-.364.647-.793 1.019-1.275v.139c0 1.639-1.622 2.743-2.345 3.193m8.022-1.789c-.186-.129-.154-.557.471-1.896.241-.525.811-1.404 1.787-2.25.109.343.186.675.175.986-.011 2.067-1.523 2.838-2.433 3.16Z"
	/>
	<path
		fill="#EFCCA3"
		d="M398.413 141.531c-.812-14.656 3.266-28.515-3.266-39.906-16.296-28.5156-57.015-44.7969-138.484-44.7969V56v.8125c-89.609 0-127.891 16.2969-144.172 44.7965-5.536 12.545-8.046 26.214-7.328 39.907-3.007 12.53-4.378 25.398-4.078 38.281 2.437 17.922 4.078 35.844 6.515 52.125 2.438 13.844 22 24.437 24.438 37.5 4.891 35.031 35.844 51.312 125.437 51.312v4.079h-1.562v-4.079c81.453 0 115.625-16.296 120.563-51.312 1.562-13.031 17.921-23.625 20.312-37.5 2.438-16.297 3.266-34.219 5.703-52.125-.018-12.863-1.385-25.688-4.078-38.266Z"
	/>
	<path
		fill="#CCAC8D"
		d="M252.6 154.562c13.326 1.219 25.629 7.662 34.219 17.922 11.406 9.782 30.14 16.297 38.281 25.25 9.912 8.218 17.498 18.891 22 30.953 3.115 11.422 4.758 23.194 4.891 35.032 0 4.078 2.437 3.265 8.953 0 12.905-7.878 24.459-17.78 34.219-29.328-2.438 13.843-19.547 26.062-21.172 39.062-4.891 35.031-39.063 52.125-123 52.125h4.89"
	/>
	<path
		fill="#CCAC8D"
		d="M304.741 126.875c3.265 10.594 13.843 47.25-7.328 35.031 7.723 6.068 12.94 14.767 14.656 24.438 1.023 5.185 3.463 9.986 7.048 13.869 3.586 3.884 8.177 6.698 13.264 8.131 14.07 2.086 28.396-1.426 39.907-9.782 6.755-6.473 11.385-14.845 13.276-24.008 1.892-9.163.957-18.685-2.683-27.304-2.478-7.018-6.964-13.153-12.901-17.643-5.936-4.489-13.061-7.134-20.489-7.607-15.36-4.094-48.016-7.344-44.75 4.875Z"
	/>
	<path
		fill="#000"
		d="M346.288 196.109c16.646 0 30.14-13.494 30.14-30.14s-13.494-30.141-30.14-30.141c-16.647 0-30.141 13.495-30.141 30.141s13.494 30.14 30.141 30.14Z"
	/>
	<path
		fill="#fff"
		d="M339.021 166.096c4.495 0 8.14-3.645 8.14-8.141s-3.645-8.14-8.14-8.14c-4.496 0-8.141 3.644-8.141 8.14s3.645 8.141 8.141 8.141Z"
	/>
	<path
		fill="#EFCCA3"
		d="M299.851 164.344c15.325 10.752 29.518 23.033 42.359 36.656 14.656 18.75 14.656 22 14.656 22l-10.594 4.891c-7.919-15.455-19.356-28.835-33.39-39.063-18.75-10.594-21.172-19.547-21.172-19.547l8.141-4.937Z"
	/>
	<path
		fill="#CCAC8D"
		d="M253.428 154.562c-14.029 1.183-27.106 7.577-36.656 17.922-11.406 9.782-31.766 16.297-39.063 25.25-10.161 8.163-18.023 18.831-22.812 30.953-3.115 11.422-4.758 23.194-4.891 35.032 0 4.078.813 4.89-9.781 0-13.095-7.614-24.691-17.553-34.219-29.328 2.438 13.843 19.547 26.062 21.172 39.062 4.891 34.219 39.063 51.313 123 51.313h5.703"
	/>
	<path
		fill="#56332B"
		d="M331.616 210.766c-9.346-12.399-21.39-22.51-35.22-29.567-13.83-7.057-29.085-10.876-44.608-11.168-15.506.389-30.726 4.251-44.541 11.3-13.816 7.05-25.874 17.108-35.288 29.435-6.27 6.528-10.99 14.385-13.811 22.986-2.821 8.601-3.671 17.727-2.485 26.701 0 72.5 25.25 50.5 42.359 59.469 17.039 5.685 35.161 7.359 52.953 4.89 17.791 2.507 35.922.832 52.953-4.89 17.11-8.953 42.36 13.031 42.36-59.469 2.02-8.845 1.731-18.061-.838-26.762-2.57-8.702-7.334-16.596-13.834-22.925Z"
	/>
	<path
		fill="#442823"
		d="M250.163 190.406c-.615 13.574-3.08 27-7.329 39.907l8.954-2.438-1.625-37.469Z"
	/>
	<path
		fill="#442823"
		d="M252.6 190.406c.614 13.574 3.08 27 7.328 39.907l-8.953-2.438 1.625-37.469Z"
	/>
	<path
		fill="#56332B"
		d="M224.1 182.266c-3.265-8.141 8.953-21.172 28.516-21.172 19.562 0 31.765 13.031 28.515 21.172-3.25 8.14-16.296 10.593-28.515 10.593-13.047-.015-25.266-2.453-28.516-10.593Z"
	/>
	<path
		fill="#000"
		d="M252.601 190.406c0-1.562 11.406-1.562 17.921-5.703 0 0-13.031 4.078-15.484 2.438-1.685-1.491-2.832-3.496-3.266-5.703-.433 2.207-1.58 4.212-3.265 5.703-2.438 1.562-17.11-2.438-17.11-2.438 6.389 1.411 12.658 3.318 18.75 5.703v6.516c-.509 10.614.014 21.253 1.563 31.766 2.437 3.265 1.562-22.813 1.562-31.766-.574-2.121-.801-4.322-.671-6.516Z"
	/>
	<path
		fill="#7F4A41"
		d="M252.6 236.828c9.208 1.228 17.923 4.885 25.25 10.594-6.371-8.256-15.22-14.253-25.25-17.11-11.502 2.497-21.666 9.179-28.516 18.751 8.031-6.899 17.983-11.17 28.516-12.235Z"
	/>
	<path
		fill="#442823"
		d="M250.975 297.935c-12.778-.706-25.397-3.172-37.5-7.328-2.437-.813-4.891.812-7.328 0-19.685-5.578-37.086-17.272-49.688-33.391v3.266c0 72.5 25.25 50.5 42.36 59.468 17.039 5.686 35.161 7.359 52.953 4.891 17.791 2.506 35.922.832 52.953-4.891 17.109-8.953 42.359 13.032 42.359-59.468v-7.328c-12.056 17.707-29.891 30.676-50.453 36.687-2.437.812-6.515-.813-8.953-.813-11.63 5.062-24.047 8.075-36.703 8.907Z"
	/>
	<path
		fill="#442823"
		d="M217.584 258s-8.953 26.062-2.437 37.5l-8.141-3.266c2.673-11.658 6.208-23.101 10.578-34.234Zm68.422 0s8.953 26.062 2.438 37.5l8.187-3.266c-2.296-11.761-5.858-23.239-10.625-34.234Z"
	/>
	<path
		fill="#CCAC8D"
		d="M196.397 126.875c-3.265 10.594-13.843 47.25 7.328 35.031-7.723 6.068-12.94 14.767-14.656 24.438-1.023 5.185-3.463 9.986-7.048 13.869-3.586 3.884-8.177 6.698-13.264 8.131-14.082 2.12-28.433-1.369-39.969-9.719-6.755-6.473-11.385-14.846-13.277-24.009-1.892-9.163-.956-18.684 2.683-27.304 2.478-7.018 6.965-13.153 12.901-17.642 5.937-4.489 13.062-7.135 20.49-7.608 15.5-4.156 48.078-7.406 44.812 4.813Z"
	/>
	<path
		fill="#000"
		d="M251.788 230.313c10.096 2.842 19.123 8.615 25.937 16.59 6.814 7.974 11.11 17.79 12.344 28.206v-1.562c-.257-10.819-4.187-21.228-11.144-29.517-6.957-8.289-16.527-13.964-27.137-16.092-10.677 1.99-20.331 7.626-27.313 15.945-6.982 8.319-10.859 18.804-10.969 29.664v1.562c1.37-10.367 5.714-20.116 12.508-28.066 6.794-7.95 15.746-13.761 25.774-16.73Z"
	/>
	<path
		fill="#331712"
		d="M259.509 182.076c1.303-.337 1.813-2.729 1.139-5.345-.675-2.615-2.278-4.463-3.582-4.127-1.303.336-1.813 2.729-1.139 5.344.675 2.616 2.278 4.464 3.582 4.128Zm-13.523-3.87c.8-2.58.407-4.994-.879-5.393s-2.977 1.369-3.777 3.948c-.8 2.58-.407 4.995.879 5.394s2.977-1.369 3.777-3.949Z"
	/>
	<path
		fill="#000"
		d="M156.491 196.109c16.646 0 30.14-13.494 30.14-30.14s-13.494-30.141-30.14-30.141-30.141 13.495-30.141 30.141 13.495 30.14 30.141 30.14Z"
	/>
	<path
		fill="#fff"
		d="M163.34 163.304c4.496 0 8.141-3.644 8.141-8.14s-3.645-8.141-8.141-8.141-8.14 3.645-8.14 8.141 3.644 8.14 8.14 8.14Z"
	/>
	<path
		fill="#7F4A41"
		d="M260.694 165.969s-8.141 3.265-9.781 4.078c-3.431-.907-6.722-2.279-9.782-4.078h19.563Z"
	/>
	<path
		fill="#EFCCA3"
		d="M201.319 164.344c-15.326 10.752-29.518 23.033-42.36 36.656-14.656 18.75-14.656 22-14.656 22l10.594 4.891c7.919-15.455 19.356-28.835 33.391-39.063 18.75-10.594 21.171-19.547 21.171-19.547l-8.14-4.937Z"
	/>
	<path
		fill="#CCAC8D"
		d="M141.819 109.766c-5.677 15.028-16.309 27.672-30.141 35.843 8.639-1.024 16.564-5.299 22.163-11.958 5.599-6.658 8.451-15.199 7.978-23.885Zm215.875 0c5.677 15.028 16.309 27.672 30.14 35.843-8.639-1.024-16.563-5.299-22.162-11.958-5.599-6.658-8.452-15.199-7.978-23.885ZM301.475 157c-13.093-12.526-30.025-20.276-48.062-22h2.437c-9.021-.109-17.951 1.812-26.13 5.62-8.178 3.808-15.396 9.406-21.12 16.38 13.443-10.639 30.107-16.387 47.25-16.297 16.408 1.18 32.183 6.814 45.625 16.297Zm-24.437-44.797c-5.962-7.842-14.712-13.0898-24.438-14.6561h2.438c-4.876.1649-9.623 1.605-13.768 4.1771-4.145 2.571-7.544 6.184-9.857 10.479 6.18-6.493 14.665-10.298 23.625-10.594 4.209.099 8.349 1.096 12.143 2.922 3.794 1.827 7.154 4.443 9.857 7.672ZM156.491 218.094c-8.537 4.398-18.378 5.558-27.703 3.265h-3.25c-6.45-6.645-11.199-14.75-13.844-23.625 3.383 8.529 9.94 15.415 18.294 19.212 8.353 3.796 17.852 4.208 26.503 1.148Zm188.984 0c8.537 4.398 18.377 5.558 27.703 3.265h-3.265c4.792-1.919 8.942-5.157 11.97-9.338 3.028-4.182 4.81-9.135 5.139-14.287-1.252 4.159-3.349 8.014-6.16 11.325-2.81 3.31-6.273 6.006-10.173 7.916-3.9 1.911-8.152 2.997-12.49 3.19-4.339.192-8.67-.513-12.724-2.071Z"
	/>
	<path
		fill="#CCAC8D"
		d="M175.225 108.141c11.634-2.285 23.647-1.749 35.031 1.562 14.657 4.891 3.266 24.438 5.703 25.25 4.696-4.278 10.248-7.507 16.288-9.474 6.04-1.966 12.43-2.625 18.744-1.932 27.703 1.562 30.953 13.844 35.031 11.406 4.078-1.562-4.078-34.219 38.281-26.875 0 0-43.172-11.4061-41.547 19.547-8.915-5.824-19.273-9.055-29.919-9.331-10.645-.276-21.157 2.414-30.362 7.768 0 0 8.953-30.1401-47.25-17.921Zm-11.406-42.3285s-37.5 46.4375-42.36 64.3435c-5.703 17.922-9.781 92.86-14.656 103.453l-17.1092-73.343 31.7652-76.5629 42.36-17.8906Zm174.312 0s37.5 46.4375 42.36 64.3435c5.703 17.922 9.781 92.86 14.656 103.453l17.109-73.343-31.765-76.5629-42.36-17.8906Z"
	/>
	<path
		fill="#56332B"
		d="M335.694 65.8124c22.735 19.316 40.359 43.9376 51.312 71.6876 11.407 38.281 6.516 85.531 15.485 91.234 13.031 8.141 26.875-40.734 31.765-45.609 7.328-8.141 32.578-29.328 34.219-33.391 1.641-4.062-50.5-61.0935-74.125-72.4997-26.078-13.0938-60.219-14.7188-58.656-11.4219Z"
	/>
	<path
		fill="#442823"
		d="M369.913 86.1249c28.839 39.3171 45.036 86.4781 46.437 135.2191l18.75-38.282c-14.058-36.858-36.355-70.015-65.187-96.9371Z"
	/>
	<path
		fill="#56332B"
		d="M163.819 65.8124C141.084 85.1284 123.46 109.75 112.507 137.5c-11.407 38.281-6.516 85.531-15.4848 91.234-13.0312 8.141-26.875-40.734-31.7656-45.609-7.3281-8.141-32.5781-29.328-34.2188-33.391-1.6406-4.062 50.5-61.0935 74.1252-72.4997 26.078-13.0938 60.219-14.7188 58.656-11.4219Z"
	/>
	<path
		fill="#442823"
		d="M129.6 86.1249C100.76 125.442 84.5641 172.603 83.1626 221.344L64.4438 183c14.057-36.833 36.3432-69.967 65.1562-96.8751Z"
	/>
	<path
		fill="#CCAC8D"
		d="M103.538 222.172c1.288 8.671 4.335 16.986 8.953 24.437 5.703 5.703 1.562-4.89 1.562-4.89s-5.703-3.266-4.89-26.875c.812-23.61-5.625 7.328-5.625 7.328Zm293.25 0c-1.289 8.671-4.336 16.986-8.954 24.437-5.703 5.703-1.562-4.89-1.562-4.89s5.703-3.266 4.891-26.875c-.891-22.813 5.625 7.328 5.625 7.328Z"
	/>
	<path
		fill="#442823"
		d="M216.772 210.766c1.347 0 2.438-1.092 2.438-2.438s-1.091-2.437-2.438-2.437c-1.346 0-2.437 1.091-2.437 2.437 0 1.346 1.091 2.438 2.437 2.438Zm-16.297 17.109c1.346 0 2.438-1.091 2.438-2.437 0-1.347-1.092-2.438-2.438-2.438s-2.437 1.091-2.437 2.438c0 1.346 1.091 2.437 2.437 2.437Zm-4.891-17.109c1.347 0 2.438-1.092 2.438-2.438s-1.091-2.437-2.438-2.437c-1.346 0-2.437 1.091-2.437 2.437 0 1.346 1.091 2.438 2.437 2.438Zm87.985 0c1.347 0 2.438-1.092 2.438-2.438s-1.091-2.437-2.438-2.437c-1.346 0-2.437 1.091-2.437 2.437 0 1.346 1.091 2.438 2.437 2.438Zm15.469 17.109c1.346 0 2.438-1.091 2.438-2.437 0-1.347-1.092-2.438-2.438-2.438s-2.437 1.091-2.437 2.438c0 1.346 1.091 2.437 2.437 2.437Zm4.891-17.109c1.346 0 2.437-1.092 2.437-2.438s-1.091-2.437-2.437-2.437c-1.347 0-2.438 1.091-2.438 2.437 0 1.346 1.091 2.438 2.438 2.438Z"
	/>
	<path
		fill="url(#a)"
		d="m283.199 389.345-29.93 53.519c-.14.252-.345.462-.593.608-.249.147-.532.224-.82.225-.288.002-.572-.074-.821-.218-.25-.145-.456-.353-.599-.603l-30.522-53.526c-.153-.269-.227-.576-.212-.885.015-.309.117-.607.296-.86.178-.253.425-.449.711-.567.286-.117.6-.15.904-.096l29.962 5.357c.191.034.386.034.576 0l29.336-5.348c.303-.055.616-.023.901.093.286.115.533.31.713.56.179.251.284.547.301.855.018.308-.053.617-.203.886Z"
	/>
	<path
		fill="url(#b)"
		d="m265.845 379.919-22.145 4.338c-.177.035-.338.128-.457.264s-.189.308-.199.488l-1.362 23.011c-.007.126.015.252.064.369.05.116.127.219.223.3.097.082.211.14.334.17.123.029.251.03.374.001l6.165-1.423c.133-.031.271-.028.403.009.131.037.251.106.348.201.098.096.17.214.21.344.04.131.046.269.019.402l-1.831 8.971c-.029.138-.021.281.023.415.044.134.122.255.226.349.104.095.231.161.369.192.137.031.281.026.415-.015l3.808-1.157c.135-.042.279-.047.417-.016.137.031.265.097.369.192.104.096.182.216.226.351.043.134.051.277.022.416l-2.913 14.09c-.182.881.991 1.362 1.481.608l.325-.506 18.049-36.017c.068-.136.096-.288.082-.439-.014-.151-.07-.295-.162-.416-.092-.12-.215-.213-.357-.267-.141-.055-.295-.068-.444-.039l-6.348 1.223c-.136.026-.277.016-.409-.028-.132-.043-.251-.121-.344-.223-.094-.103-.16-.228-.191-.364-.032-.135-.028-.277.011-.41l4.14-14.362c.039-.134.043-.275.011-.411-.032-.136-.098-.262-.192-.365-.094-.103-.213-.18-.346-.223-.133-.044-.274-.053-.411-.025"
	/>
	<path
		fill="#D9D9D9"
		d="M253.143 385.276c-1.461-.243-2.805-.951-3.832-2.018-1.028-1.067-1.684-2.437-1.872-3.906-.188-1.469.103-2.96.829-4.251.726-1.291 1.848-2.314 3.201-2.917 1.353-.603 2.864-.754 4.31-.43 1.445.323 2.748 1.103 3.715 2.225.967 1.122 1.547 2.526 1.654 4.003.107 1.478-.127 1.56-.67 3.069l-1.993.645c.596-.935 1.017-2.483.938-3.589-.08-1.107-.515-2.158-1.239-2.998-.724-.84-1.7-1.425-2.783-1.667-1.082-.242-2.214-.129-3.227.322-1.014.452-1.854 1.218-2.398 2.185-.544.967-.761 2.083-.621 3.184.141 1.1.632 2.126 1.402 2.925.769.799 1.776 1.329 2.87 1.512l-.284 1.706Z"
	/>
	<path fill="#322323" d="M251.7 369.905h5.58269v5.23378H251.7z" />
	<path stroke="#000" d="m252.876 384.047-.698 2.268" />
	<defs>
		<linearGradient
			id="a"
			x1="219.169"
			x2="256.416"
			y1="385.029"
			y2="435.614"
			gradientUnits="userSpaceOnUse"
		>
			<stop stop-color="#41D1FF" />
			<stop offset="1" stop-color="#BD34FE" />
		</linearGradient>
		<linearGradient
			id="b"
			x1="249.853"
			x2="256.591"
			y1="381.096"
			y2="427.317"
			gradientUnits="userSpaceOnUse"
		>
			<stop stop-color="#FFEA83" />
			<stop offset=".083" stop-color="#FFDD35" />
			<stop offset="1" stop-color="#FFA800" />
		</linearGradient>
	</defs>
</svg>
